<svg width="30" height="30" viewBox="0 0 30 30" fill="none" xmlns="http://www.w3.org/2000/svg">
<path d="M20.0733 2.90625H9.94742C5.54909 2.90625 2.927 5.52833 2.927 9.92667V20.0404C2.927 24.4508 5.54909 27.0729 9.94742 27.0729H20.0612C24.4595 27.0729 27.0816 24.4508 27.0816 20.0525V9.92667C27.0937 5.52833 24.4716 2.90625 20.0733 2.90625ZM15.0103 19.6779C12.4245 19.6779 10.322 17.5754 10.322 14.9896C10.322 12.4038 12.4245 10.3012 15.0103 10.3012C17.5962 10.3012 19.6987 12.4038 19.6987 14.9896C19.6987 17.5754 17.5962 19.6779 15.0103 19.6779ZM22.1637 8.80292C22.1033 8.94792 22.0187 9.08083 21.9099 9.20167C21.7891 9.31042 21.6562 9.395 21.5112 9.45542C21.3662 9.51583 21.2091 9.55208 21.052 9.55208C20.7258 9.55208 20.4237 9.43125 20.1941 9.20167C20.0853 9.08083 20.0008 8.94792 19.9403 8.80292C19.8799 8.65792 19.8437 8.50083 19.8437 8.34375C19.8437 8.18667 19.8799 8.02958 19.9403 7.88458C20.0008 7.7275 20.0853 7.60667 20.1941 7.48583C20.472 7.20792 20.8949 7.075 21.2816 7.15958C21.3662 7.17167 21.4387 7.19583 21.5112 7.23208C21.5837 7.25625 21.6562 7.2925 21.7287 7.34083C21.7891 7.37708 21.8495 7.4375 21.9099 7.48583C22.0187 7.60667 22.1033 7.7275 22.1637 7.88458C22.2241 8.02958 22.2603 8.18667 22.2603 8.34375C22.2603 8.50083 22.2241 8.65792 22.1637 8.80292Z" fill="#171717"/>
</svg>
